<svg xmlns="http://www.w3.org/2000/svg" version="1.1" xmlns:xlink="http://www.w3.org/1999/xlink" xmlns:svgjs="http://svgjs.dev/svgjs" viewBox="0 0 800 800" opacity="1"><defs><symbol id="bbburst-shape-1" viewBox="0 0 194 167"><path d="m97 0 96.129 166.5H.871L97 0Z"></path></symbol><symbol id="bbburst-shape-4" viewBox="0 0 149 143"><path d="M71.647 2.781c.898-2.764 4.808-2.764 5.706 0l15.445 47.534a3 3 0 0 0 2.853 2.073h49.98c2.906 0 4.115 3.719 1.764 5.427L106.96 87.193a2.999 2.999 0 0 0-1.09 3.354l15.445 47.534c.898 2.764-2.266 5.062-4.617 3.354l-40.435-29.378a3 3 0 0 0-3.526 0l-40.435 29.378c-2.351 1.708-5.515-.59-4.617-3.354L43.13 90.547a3 3 0 0 0-1.09-3.354L1.605 57.815c-2.35-1.708-1.142-5.427 1.764-5.427h49.98a3 3 0 0 0 2.853-2.073L71.647 2.781Z"></path></symbol><symbol id="bbburst-shape-6" viewBox="0 0 133 116"><path d="M59.7487 10.2513c-13.6683-13.66839-35.8291-13.66839-49.4974 0-13.66839 13.6683-13.66839 35.8291 0 49.4974l49.4974-49.4974ZM66.5 66.5 41.7513 91.2487 66.5 115.997l24.7487-24.7483L66.5 66.5Zm56.249-6.7513c13.668-13.6683 13.668-35.8291 0-49.4974-13.669-13.66839-35.8294-13.66839-49.4977 0l49.4977 49.4974Zm-112.4977 0 31.5 31.5 49.4974-49.4974-31.5-31.5-49.4974 49.4974Zm80.9974 31.5 31.5003-31.5-49.4977-49.4974-31.5 31.5 49.4974 49.4974Z"></path></symbol><symbol id="bbburst-shape-8" viewBox="0 0 87 168"><path d="m12 12 31.2546 18.0749c16.4102 9.4902 20.014 31.6325 7.4603 45.8369L36.3296 92.1884c-12.5684 14.2206-8.9394 36.3916 7.5068 45.8636L75 156" stroke-width="14" stroke-linecap="round" stroke-linejoin="round"></path></symbol><symbol id="bbburst-shape-10" viewBox="0 0 145 145"><circle cx="72.5" cy="72.5" r="61.5" fill="none" stroke-width="22"></circle></symbol></defs><use xlink:href="#bbburst-shape-8" width="50.8993161422159" opacity="-0.07930097054982421" transform="matrix(0.8893571373546073,-0.457213169360221,0.457213169360221,0.8893571373546073,-153.6241689707656,394.58643557240987)" fill="none" stroke="#ffa6d5"></use><use xlink:href="#bbburst-shape-10" width="21.74275108106366" opacity="0.6344229648790349" transform="matrix(0.997403874647789,0.07201049116328594,-0.07201049116328594,0.997403874647789,327.39256687168523,-137.07897919550152)" fill="none" stroke="#2c2891"></use><use xlink:href="#bbburst-shape-10" width="29.035499721575917" opacity="0.1648789420240554" transform="matrix(0.9885674624940798,-0.15077921639939662,0.15077921639939662,0.9885674624940798,248.0646046194376,374.5364483387618)" fill="none" stroke="#2c2891"></use><use xlink:href="#bbburst-shape-8" width="13.600361701649971" opacity="0.863930546441076" transform="matrix(0.9999069449583903,-0.013641899573693637,0.013641899573693637,0.9999069449583903,444.02592425909023,24.24584951068016)" fill="none" stroke="#ff5c58"></use><use xlink:href="#bbburst-shape-8" width="26.0068452214608" opacity="0.6112033218773716" transform="matrix(0.8116907101257103,0.5840874858235025,-0.5840874858235025,0.8116907101257103,754.2902233587461,-48.00568409128317)" fill="none" stroke="#00a19d"></use><use xlink:href="#bbburst-shape-8" width="16.089663583976762" opacity="0.7438628863544879" transform="matrix(0.9897035449949493,0.14313243177012808,-0.14313243177012808,0.9897035449949493,350.92873993440037,63.05149601067234)" fill="none" stroke="#ffa6d5"></use><use xlink:href="#bbburst-shape-8" width="21.84318479482853" opacity="0.75402561518084" transform="matrix(0.9766071077725361,-0.21503152570765505,0.21503152570765505,0.9766071077725361,394.20175835329474,-51.48198235522)" fill="none" stroke="#2c2891"></use><use xlink:href="#bbburst-shape-4" width="19.05198963835231" opacity="0.6522428200182951" transform="matrix(0.73038909043996,0.6830313144844004,-0.6830313144844004,0.73038909043996,511.8452920538782,75.84166470344451)" fill="#00a19d"></use><use xlink:href="#bbburst-shape-1" width="17.767953040854792" opacity="0.7604689491342731" transform="matrix(0.9998917663946119,-0.014712426593292317,0.014712426593292317,0.9998917663946119,312.0329387733553,-78.92524973156668)" fill="#2c2891"></use><use xlink:href="#bbburst-shape-6" width="30.630310169213764" opacity="0.4763880358362801" transform="matrix(0.9987146042642178,0.0506866770400946,-0.0506866770400946,0.9987146042642178,236.5998459678724,164.56456359820146)" fill="#00a19d"></use><use xlink:href="#bbburst-shape-10" width="16.098433144584973" opacity="0.7894627974510764" transform="matrix(0.87557438652493,0.48308331958523726,-0.48308331958523726,0.87557438652493,491.66186944267633,52.30454798416088)" fill="none" stroke="#ff5c58"></use><use xlink:href="#bbburst-shape-6" width="20.10453584467417" opacity="0.8377724395977997" transform="matrix(0.7477113137731912,-0.6640239387669457,0.6640239387669457,0.7477113137731912,102.51000405993767,38.77394553495594)" fill="#ffa6d5"></use><use xlink:href="#bbburst-shape-10" width="22.030940747876496" opacity="0.6437237374175251" transform="matrix(0.9871175585467565,0.1599966424919307,-0.1599966424919307,0.9871175585467565,603.1410642465564,-53.17006041208401)" fill="none" stroke="#00a19d"></use><use xlink:href="#bbburst-shape-4" width="21.836610575284787" opacity="0.747331263747494" transform="matrix(0.9954249405386286,0.0955467830628941,-0.0955467830628941,0.9954249405386286,452.9291860686468,111.59249458526745)" fill="#ff5c58"></use><use xlink:href="#bbburst-shape-10" width="19.57960262539495" opacity="0.6024748494769637" transform="matrix(0.9517593807216863,0.30684537019201075,-0.30684537019201075,0.9517593807216863,429.9244453326329,174.49692119543516)" fill="none" stroke="#2c2891"></use><use xlink:href="#bbburst-shape-10" width="44.197817672336384" opacity="-0.08553966847866068" transform="matrix(0.8915395533747663,0.4529428493400931,-0.4529428493400931,0.8915395533747663,200.434686445831,-295.6771618930437)" fill="none" stroke="#ff5c58"></use><use xlink:href="#bbburst-shape-10" width="40.742907890225105" opacity="0.3886589695422814" transform="matrix(0.7459036337863085,-0.666053878529643,0.666053878529643,0.7459036337863085,294.48002144249585,-96.15016304761761)" fill="none" stroke="#2c2891"></use><use xlink:href="#bbburst-shape-1" width="14.674230377200828" opacity="0.8276009148040547" transform="matrix(0.7675724343314907,0.6409622126572122,-0.6409622126572122,0.7675724343314907,634.7619068106443,164.19887668749737)" fill="#ffa6d5"></use><use xlink:href="#bbburst-shape-4" width="18.61835298654627" opacity="0.8066052437994582" transform="matrix(0.9998726394747217,-0.01595947461081278,0.01595947461081278,0.9998726394747217,404.66000620422744,-84.39815647768421)" fill="#ffa6d5"></use><use xlink:href="#bbburst-shape-10" width="32.9537488508083" opacity="0.12005661349519847" transform="matrix(0.9908843287895422,-0.13471542955169744,0.13471542955169744,0.9908843287895422,159.36014380142,-351.55599606952336)" fill="none" stroke="#00a19d"></use><use xlink:href="#bbburst-shape-4" width="35.31184598384015" opacity="0.33603220993348026" transform="matrix(0.8271826304026071,0.5619331774866331,-0.5619331774866331,0.8271826304026071,590.7043160035691,357.3840126362223)" fill="#ffbd9b"></use><use xlink:href="#bbburst-shape-10" width="38.152752615353066" opacity="0.13878117199441653" transform="matrix(0.8757085655819622,-0.4828400440791777,0.4828400440791777,0.8757085655819622,-96.7803453550045,319.4266574772642)" fill="none" stroke="#ff5c58"></use><use xlink:href="#bbburst-shape-10" width="37.991479907968525" opacity="0.27250886094736526" transform="matrix(0.9849965563404561,-0.17257399571616425,0.17257399571616425,0.9849965563404561,457.32561133171515,-284.1955729138527)" fill="none" stroke="#ffa6d5"></use><use xlink:href="#bbburst-shape-6" width="18.204019626847113" opacity="0.8306932959446196" transform="matrix(0.9897515765778123,-0.14279991828336233,0.14279991828336233,0.9897515765778123,408.7267791219484,-8.787893037496588)" fill="#2c2891"></use><use xlink:href="#bbburst-shape-6" width="15.528514389265936" opacity="0.7557947418743627" transform="matrix(0.8424740161803349,0.5387369785535209,-0.5387369785535209,0.8424740161803349,713.8791586296861,91.49173819262575)" fill="#00a19d"></use><use xlink:href="#bbburst-shape-4" width="31.262416903922606" opacity="0.523279014418667" transform="matrix(0.9914497725039765,0.13048888305834064,-0.13048888305834064,0.9914497725039765,647.0345454400665,-40.75423397582358)" fill="#ff5c58"></use><use xlink:href="#bbburst-shape-4" width="19.151424619989434" opacity="0.6921506944403487" transform="matrix(0.9410062604403581,0.33838915143965986,-0.33838915143965986,0.9410062604403581,612.8810239935005,128.54763651442948)" fill="#ffa6d5"></use><use xlink:href="#bbburst-shape-8" width="16.193052355166397" opacity="0.8159482155571971" transform="matrix(0.7079183590127598,-0.7062942708055059,0.7062942708055059,0.7079183590127598,35.306638311201766,90.67611957690417)" fill="none" stroke="#00a19d"></use><use xlink:href="#bbburst-shape-10" width="31.78432523342202" opacity="0.19387977486372143" transform="matrix(0.8720348667016948,-0.48944375699007264,0.48944375699007264,0.8720348667016948,-172.27886439778678,67.94765765716744)" fill="none" stroke="#ffa6d5"></use><use xlink:href="#bbburst-shape-4" width="11.757077637714234" opacity="0.940171976424064" transform="matrix(0.770034840332418,0.638001837516341,-0.638001837516341,0.770034840332418,668.2511415704568,108.63082113936872)" fill="#ff5c58"></use><use xlink:href="#bbburst-shape-6" width="35.503730715644714" opacity="0.3620443842210853" transform="matrix(0.982045758806034,0.1886428573020482,-0.1886428573020482,0.982045758806034,664.3307118643553,203.4641289562358)" fill="#2c2891"></use><use xlink:href="#bbburst-shape-1" width="29.747062840889672" opacity="0.15865941728399913" transform="matrix(0.9945742234103135,0.10402939069210985,-0.10402939069210985,0.9945742234103135,521.8059907003517,-365.8318637701972)" fill="#2c2891"></use><use xlink:href="#bbburst-shape-6" width="32.03473078947137" opacity="0.17758830922832103" transform="matrix(0.9046193873842668,0.42622032327015297,-0.42622032327015297,0.9046193873842668,919.2048718737738,102.34773009139707)" fill="#2c2891"></use><use xlink:href="#bbburst-shape-10" width="30.98498534306846" opacity="0.3579135998010071" transform="matrix(0.8608687425231453,-0.508827090617843,0.508827090617843,0.8608687425231453,251.93686225053116,344.1626414195116)" fill="none" stroke="#00a19d"></use><use xlink:href="#bbburst-shape-4" width="25.381791997482676" opacity="0.5635051232864584" transform="matrix(0.9895853425727738,0.14394738540566152,-0.14394738540566152,0.9895853425727738,461.23535679773573,-193.39013839159455)" fill="#ffbd9b"></use><use xlink:href="#bbburst-shape-6" width="14.23979863250671" opacity="0.9247021886209776" transform="matrix(0.9999018757526184,0.014008528345097065,-0.014008528345097065,0.9999018757526184,430.61239375467824,-10.826291337270163)" fill="#ff5c58"></use><use xlink:href="#bbburst-shape-4" width="23.273754317994683" opacity="0.6887411748829908" transform="matrix(0.8395130011830856,-0.5433395999230761,0.5433395999230761,0.8395130011830856,192.609581104387,-68.13835617544214)" fill="#2c2891"></use><use xlink:href="#bbburst-shape-4" width="38.45927383507409" opacity="0.06463689762101954" transform="matrix(0.7827438950994365,0.6223439520751868,-0.6223439520751868,0.7827438950994365,852.9786594000162,-284.42166386018283)" fill="#ff5c58"></use><use xlink:href="#bbburst-shape-10" width="36.81339214296402" opacity="-0.08108275256031194" transform="matrix(0.9696387975242352,0.24454161677668518,-0.24454161677668518,0.9696387975242352,823.1741250363552,-337.1464201442208)" fill="none" stroke="#00a19d"></use><use xlink:href="#bbburst-shape-10" width="26.73301101464954" opacity="0.6350074080293646" transform="matrix(0.9107291690888654,0.4130040926803328,-0.4130040926803328,0.9107291690888654,434.64632834531767,144.041583535183)" fill="none" stroke="#ffa6d5"></use><use xlink:href="#bbburst-shape-6" width="27.227874159977002" opacity="0.43578230008202046" transform="matrix(0.9891781673022916,0.14671930115864004,-0.14671930115864004,0.9891781673022916,517.7932299063424,-240.97366715026038)" fill="#ffbd9b"></use><use xlink:href="#bbburst-shape-8" width="49.25235049458433" opacity="0.09730757035189797" transform="matrix(0.9916837932378852,-0.1286983070180774,0.1286983070180774,0.9916837932378852,-35.95396650979154,194.56370071776126)" fill="none" stroke="#00a19d"></use><use xlink:href="#bbburst-shape-4" width="28.783832545513924" opacity="0.08371088935042958" transform="matrix(0.7255480435178326,0.6881715168091783,-0.6881715168091783,0.7255480435178326,1023.1120942153957,303.94144315070514)" fill="#ffa6d5"></use><use xlink:href="#bbburst-shape-4" width="27.83831576527202" opacity="0.7066576025130729" transform="matrix(0.7336530803303382,0.6795242142277245,-0.6795242142277245,0.7336530803303382,729.3665288040405,-16.171384450516314)" fill="#ffa6d5"></use><use xlink:href="#bbburst-shape-6" width="39.047757378309484" opacity="0.2514436706807751" transform="matrix(0.8027898930783327,0.5962620125173824,-0.5962620125173824,0.8027898930783327,780.6254342804365,364.8485727287769)" fill="#ffa6d5"></use><use xlink:href="#bbburst-shape-1" width="17.33294795648118" opacity="0.7864085494322033" transform="matrix(0.8654303275871931,-0.5010292886571839,0.5010292886571839,0.8654303275871931,262.141598722044,124.01021616564674)" fill="#2c2891"></use><use xlink:href="#bbburst-shape-8" width="28.905963032737745" opacity="0.6178616002555051" transform="matrix(0.8533637972665945,0.521315863478888,-0.521315863478888,0.8533637972665945,656.5825686496803,212.12948850293645)" fill="none" stroke="#2c2891"></use><use xlink:href="#bbburst-shape-6" width="14.407229739567125" opacity="0.8896145380732225" transform="matrix(0.9999991935958775,-0.0012699636193982964,0.0012699636193982964,0.9999991935958775,355.33952606351687,-33.19023525027728)" fill="#ff5c58"></use><use xlink:href="#bbburst-shape-10" width="27.48978447541773" opacity="0.16904937618296267" transform="matrix(0.8817692904223171,0.4716809498677293,-0.4716809498677293,0.8817692904223171,937.5101568893235,-56.82079264540778)" fill="none" stroke="#ff5c58"></use><use xlink:href="#bbburst-shape-8" width="34.41006379294262" opacity="0.275434737556692" transform="matrix(0.9092821618853283,-0.4161801894337879,0.4161801894337879,0.9092821618853283,94.67125852067463,345.3252441984063)" fill="none" stroke="#ffbd9b"></use><use xlink:href="#bbburst-shape-6" width="30.977397408823034" opacity="0.4693541346651543" transform="matrix(0.972328261049511,-0.2336188193712871,0.2336188193712871,0.972328261049511,209.21479758780302,238.85563310339978)" fill="#ff5c58"></use><use xlink:href="#bbburst-shape-8" width="28.008813603667313" opacity="0.5496752895132598" transform="matrix(0.7271314716102193,-0.6864982323312689,0.6864982323312689,0.7271314716102193,256.59843104889734,263.9403637285313)" fill="none" stroke="#ff5c58"></use><use xlink:href="#bbburst-shape-6" width="45.55211614696576" opacity="0.1620010332184929" transform="matrix(0.8504526969232007,0.526051528175762,-0.526051528175762,0.8504526969232007,863.3820706298828,308.68183160839254)" fill="#ffbd9b"></use><use xlink:href="#bbburst-shape-10" width="31.32335105567661" opacity="0.17754535316118636" transform="matrix(0.9180392741202109,-0.3964894590942314,0.3964894590942314,0.9180392741202109,292.12155974043714,403.3289964122003)" fill="none" stroke="#00a19d"></use><use xlink:href="#bbburst-shape-10" width="26.13675655705217" opacity="0.4605632345356463" transform="matrix(0.9924817414475671,0.1223927812136187,-0.1223927812136187,0.9924817414475671,549.8371602045465,215.80003072602278)" fill="none" stroke="#2c2891"></use><use xlink:href="#bbburst-shape-6" width="25.39746919811917" opacity="0.557441427056354" transform="matrix(0.8147316337472027,0.5798382231033186,-0.5798382231033186,0.8147316337472027,422.7610044684494,78.08758565077903)" fill="#00a19d"></use><use xlink:href="#bbburst-shape-1" width="23.155995929691755" opacity="0.6289745202325194" transform="matrix(0.957876037182375,-0.2871819935020113,0.2871819935020113,0.957876037182375,258.38195031393667,186.42825551583013)" fill="#ffbd9b"></use><use xlink:href="#bbburst-shape-10" width="31.060780089664156" opacity="0.34039540577528526" transform="matrix(0.9199071402748784,0.39213626875270685,-0.39213626875270685,0.9199071402748784,284.1908875007746,-120.1508600402955)" fill="none" stroke="#2c2891"></use><use xlink:href="#bbburst-shape-6" width="19.16170096853261" opacity="0.8477943907537909" transform="matrix(0.9312160315743329,0.36446769752469294,-0.36446769752469294,0.9312160315743329,583.4345068563603,-26.202837209557686)" fill="#00a19d"></use><use xlink:href="#bbburst-shape-1" width="32.344960041274184" opacity="0.40421012983193627" transform="matrix(0.8836952710056452,-0.4680626752928067,0.4680626752928067,0.8836952710056452,-69.2202715672357,39.81615045887804)" fill="#00a19d"></use><use xlink:href="#bbburst-shape-10" width="15.346273744573748" opacity="0.9098931014258032" transform="matrix(0.9998010810423816,-0.019944882714246107,0.019944882714246107,0.9998010810423816,390.0900486259331,-39.90721623238596)" fill="none" stroke="#2c2891"></use><use xlink:href="#bbburst-shape-4" width="20.699657643591184" opacity="0.7244409397772966" transform="matrix(0.908724542884576,0.4173963406155094,-0.4173963406155094,0.908724542884576,681.0465390216416,21.076850324330223)" fill="#2c2891"></use><use xlink:href="#bbburst-shape-8" width="28.11675492725851" opacity="0.3651929962883159" transform="matrix(0.8684259392143333,0.4958189065573267,-0.4958189065573267,0.8684259392143333,860.3880008772311,-34.21499387165994)" fill="none" stroke="#ffa6d5"></use><use xlink:href="#bbburst-shape-6" width="32.47667513351269" opacity="0.2909554031826762" transform="matrix(0.9745622135247898,0.22411713894671692,-0.22411713894671692,0.9745622135247898,360.37139868855854,-291.6831795829884)" fill="#2c2891"></use><use xlink:href="#bbburst-shape-10" width="34.49108787926844" opacity="0.43977328840918084" transform="matrix(0.9682046177738596,0.2501595853078081,-0.2501595853078081,0.9682046177738596,733.0518963424074,43.22767691652854)" fill="none" stroke="#00a19d"></use><use xlink:href="#bbburst-shape-4" width="14.185463177315569" opacity="0.8850667440581188" transform="matrix(0.755403095295678,-0.6552603784891231,0.6552603784891231,0.755403095295678,80.93806137594095,105.89251674115906)" fill="#ffbd9b"></use><use xlink:href="#bbburst-shape-1" width="48.45836204669036" opacity="-0.07683342773996849" transform="matrix(0.9999370159739684,0.011223372268423392,-0.011223372268423392,0.9999370159739684,725.221240311412,340.1322929348933)" fill="#00a19d"></use><use xlink:href="#bbburst-shape-8" width="22.010862278738465" opacity="0.6895045044847532" transform="matrix(0.9973920648280529,-0.07217388044184059,0.07217388044184059,0.9973920648280529,223.813845652885,32.39813478384889)" fill="none" stroke="#2c2891"></use><use xlink:href="#bbburst-shape-4" width="43.61156032594215" opacity="0.2767678896348531" transform="matrix(0.9920560190382658,0.12579688028702443,-0.12579688028702443,0.9920560190382658,704.5345758804145,-172.2267746656684)" fill="#ffbd9b"></use><use xlink:href="#bbburst-shape-4" width="29.64782965141174" opacity="0.6078848110036255" transform="matrix(0.946607143732652,0.3223893848040137,-0.3223893848040137,0.946607143732652,689.6646749444071,41.05082387145194)" fill="#00a19d"></use><use xlink:href="#bbburst-shape-8" width="32.08213034692402" opacity="0.41274959235944453" transform="matrix(0.9957988379880539,0.09156786697112482,-0.09156786697112482,0.9957988379880539,391.6748182152766,-262.45737792685935)" fill="none" stroke="#ff5c58"></use><use xlink:href="#bbburst-shape-6" width="12.807570279452754" opacity="0.9743693847595278" transform="matrix(0.9468045245449155,0.3218092483153282,-0.3218092483153282,0.9468045245449155,513.8482590056427,11.776263110394893)" fill="#00a19d"></use><use xlink:href="#bbburst-shape-6" width="34.16527267939914" opacity="0.29089994866048985" transform="matrix(0.7831450026771721,-0.6218391309509013,0.6218391309509013,0.7831450026771721,428.3463648393209,229.48096242662905)" fill="#ffbd9b"></use><use xlink:href="#bbburst-shape-6" width="37.22187455756497" opacity="0.4787968347842396" transform="matrix(0.9988754328576903,0.04741170354840498,-0.04741170354840498,0.9988754328576903,609.3776465364884,105.99824308911678)" fill="#00a19d"></use><use xlink:href="#bbburst-shape-4" width="18.237569881334636" opacity="0.8440624938959327" transform="matrix(0.914264520382721,0.4051177443279339,-0.4051177443279339,0.914264520382721,500.0023705826278,75.78475508005539)" fill="#ffbd9b"></use><use xlink:href="#bbburst-shape-8" width="25.678306988233693" opacity="0.5853041475212315" transform="matrix(0.763214180069063,0.6461455837050253,-0.6461455837050253,0.763214180069063,599.8934910545836,-93.71038170866424)" fill="none" stroke="#00a19d"></use><use xlink:href="#bbburst-shape-10" width="24.362346912360437" opacity="0.5564012386455373" transform="matrix(0.781947573982701,0.6233441998948641,-0.6233441998948641,0.781947573982701,738.6347274190073,-93.81405961552193)" fill="none" stroke="#ff5c58"></use><use xlink:href="#bbburst-shape-6" width="42.775491790087834" opacity="0.14279988516507724" transform="matrix(0.9282654584859357,-0.3719183224605848,0.3719183224605848,0.9282654584859357,-68.29149915380775,-206.2355367789646)" fill="#2c2891"></use><use xlink:href="#bbburst-shape-4" width="38.60501082009956" opacity="0.06466271920698663" transform="matrix(0.9941512018503443,0.1079971659790933,-0.1079971659790933,0.9941512018503443,780.4393425838141,-223.56997444654567)" fill="#00a19d"></use><use xlink:href="#bbburst-shape-10" width="24.173288195792793" opacity="0.6153833185003654" transform="matrix(0.9999082101380755,0.01354884860311728,-0.01354884860311728,0.9999082101380755,254.84808839989145,-103.94166695276652)" fill="none" stroke="#ffa6d5"></use><use xlink:href="#bbburst-shape-4" width="33.044456404443714" opacity="0.3102720887105954" transform="matrix(0.7393105094724062,-0.6733646638959095,0.6733646638959095,0.7393105094724062,-69.69088881011942,362.2711605248765)" fill="#ffa6d5"></use><use xlink:href="#bbburst-shape-6" width="29.602828969938322" opacity="0.584259056273414" transform="matrix(0.9615295515815311,-0.27470151334752385,0.27470151334752385,0.9615295515815311,108.20651298872035,102.42008607070181)" fill="#2c2891"></use><use xlink:href="#bbburst-shape-4" width="27.2945722289231" opacity="0.18588335905735753" transform="matrix(0.724758966758866,0.6890024964415012,-0.6890024964415012,0.724758966758866,616.2852701581246,-262.2942326949235)" fill="#ff5c58"></use><use xlink:href="#bbburst-shape-10" width="32.891942486277635" opacity="0.27412952941700597" transform="matrix(0.9447628881957801,0.3277546110857448,-0.3277546110857448,0.9447628881957801,842.1731616903322,12.070709814455938)" fill="none" stroke="#00a19d"></use><use xlink:href="#bbburst-shape-4" width="32.34341774427537" opacity="0.3155477137753654" transform="matrix(0.9080707851351837,-0.418816725052822,0.418816725052822,0.9080707851351837,-42.120656418115004,208.8201232042506)" fill="#ffbd9b"></use><use xlink:href="#bbburst-shape-1" width="37.66960025471902" opacity="0.2281824597646348" transform="matrix(0.9430480960125596,-0.33265641224405434,0.33265641224405434,0.9430480960125596,-89.33510732008526,-48.55765724795674)" fill="#2c2891"></use><use xlink:href="#bbburst-shape-6" width="31.779288194675456" opacity="0.07350482064008668" transform="matrix(0.926128266001142,-0.3772087418309894,0.3772087418309894,0.926128266001142,13.988533806382605,389.4397363099374)" fill="#ffa6d5"></use><use xlink:href="#bbburst-shape-8" width="16.632529951443196" opacity="0.8489809590888514" transform="matrix(0.791040391864033,-0.6117639237807319,0.6117639237807319,0.791040391864033,177.06152186219725,150.4362616770755)" fill="none" stroke="#00a19d"></use><use xlink:href="#bbburst-shape-1" width="28.68898115747522" opacity="0.4736219336009756" transform="matrix(0.8705029410321173,0.49216321444662436,-0.49216321444662436,0.8705029410321173,782.9244883301092,-84.37860921943724)" fill="#ff5c58"></use><use xlink:href="#bbburst-shape-6" width="28.256315698535897" opacity="0.28414092137188807" transform="matrix(0.9034447511026684,-0.42870453893682703,0.42870453893682703,0.9034447511026684,245.64009169193505,-276.06809262512616)" fill="#ffbd9b"></use><use xlink:href="#bbburst-shape-10" width="35.88188775450998" opacity="0.507603922857726" transform="matrix(0.7793610846793542,-0.6265750551110542,0.6265750551110542,0.7793610846793542,-71.32931568634285,19.71551421171523)" fill="none" stroke="#00a19d"></use><use xlink:href="#bbburst-shape-4" width="9.946681847792844" opacity="0.9300271584627287" transform="matrix(0.9730190714681323,-0.23072469863301096,0.23072469863301096,0.9730190714681323,279.8184267710391,33.395425224834355)" fill="#2c2891"></use><use xlink:href="#bbburst-shape-6" width="18.140442938088697" opacity="0.7470107459702244" transform="matrix(0.9575976230543625,-0.28810899382114935,0.28810899382114935,0.9575976230543625,210.43640501554833,112.59500169961535)" fill="#00a19d"></use><use xlink:href="#bbburst-shape-10" width="33.7504498319661" opacity="0.020124214417766018" transform="matrix(0.9598234489389376,0.2806046094898705,-0.2806046094898705,0.9598234489389376,226.91017304720825,-337.9472548366889)" fill="none" stroke="#ffbd9b"></use><use xlink:href="#bbburst-shape-10" width="39.64551204686483" opacity="0.10964625504281422" transform="matrix(0.7361460465887018,-0.6768227227951384,0.6768227227951384,0.7361460465887018,-245.8478521048146,-55.8233716430106)" fill="none" stroke="#ff5c58"></use><use xlink:href="#bbburst-shape-1" width="13.430722014582674" opacity="0.9001575303254706" transform="matrix(0.9797985209306203,0.19998714554232966,-0.19998714554232966,0.9797985209306203,468.14231557693904,51.37359987626547)" fill="#2c2891"></use><use xlink:href="#bbburst-shape-4" width="28.105789620927332" opacity="0.6461696106676156" transform="matrix(0.9978303111173432,0.06583821242611308,-0.06583821242611308,0.9978303111173432,551.7144654297468,76.90246925115406)" fill="#00a19d"></use><use xlink:href="#bbburst-shape-10" width="39.512215197918366" opacity="0.4432181429855745" transform="matrix(0.9964193847420839,-0.08454826852282109,0.08454826852282109,0.9964193847420839,109.24283030861099,83.6474364421905)" fill="none" stroke="#00a19d"></use><use xlink:href="#bbburst-shape-6" width="34.31452575645251" opacity="0.16741189458174277" transform="matrix(0.8701866712734667,0.4927221906287595,-0.4927221906287595,0.8701866712734667,840.1693744080184,-228.1971553223401)" fill="#ffbd9b"></use><use xlink:href="#bbburst-shape-1" width="30.66899556314306" opacity="0.23843257365102566" transform="matrix(0.9598917807147737,-0.2803707711517392,0.2803707711517392,0.9598917807147737,-58.689773310120316,106.01791695093908)" fill="#00a19d"></use><use xlink:href="#bbburst-shape-4" width="20.149676016313514" opacity="0.7330167633204838" transform="matrix(0.852595396408441,0.5225716123395274,-0.5225716123395274,0.852595396408441,569.7640476915967,-62.45046167875512)" fill="#ffa6d5"></use><use xlink:href="#bbburst-shape-6" width="36.993357463069074" opacity="0.2806770394546044" transform="matrix(0.9577569752736497,-0.2875788175694963,0.2875788175694963,0.9577569752736497,63.792012742054965,-229.54134180838892)" fill="#ffbd9b"></use><use xlink:href="#bbburst-shape-4" width="26.954695280789892" opacity="0.4542435200954058" transform="matrix(0.8803051619099634,0.47440786451604383,-0.47440786451604383,0.8803051619099634,470.3104252283033,-179.26990652478756)" fill="#ff5c58"></use><use xlink:href="#bbburst-shape-8" width="19.006390142774173" opacity="0.7309304869186646" transform="matrix(0.9731630764466277,0.23011655012392107,-0.23011655012392107,0.9731630764466277,453.31134060117694,125.98380859667122)" fill="none" stroke="#00a19d"></use><use xlink:href="#bbburst-shape-10" width="24.537492092697057" opacity="0.7115220494970971" transform="matrix(0.7141600639536387,-0.6999824305321775,0.6999824305321775,0.7141600639536387,-7.212920024298796,69.82365974180436)" fill="none" stroke="#ffbd9b"></use><use xlink:href="#bbburst-shape-4" width="31.276138029099055" opacity="0.510583423221703" transform="matrix(0.7244693876563202,-0.6893069754099957,0.6893069754099957,0.7244693876563202,128.75963859818836,340.68279377566165)" fill="#ffa6d5"></use><use xlink:href="#bbburst-shape-4" width="30.47056985785704" opacity="0.06427120297767741" transform="matrix(0.9998257904948398,0.01866517241733285,-0.01866517241733285,0.9998257904948398,610.7325920798567,359.7636842625446)" fill="#ffa6d5"></use><use xlink:href="#bbburst-shape-6" width="30.18360002310152" opacity="0.47109932826851797" transform="matrix(0.9964587031295181,0.0840836069483165,-0.0840836069483165,0.9964587031295181,250.08287008355472,-167.92996352273684)" fill="#00a19d"></use></svg>