<svg xmlns="http://www.w3.org/2000/svg" version="1.1" xmlns:xlink="http://www.w3.org/1999/xlink" xmlns:svgjs="http://svgjs.dev/svgjs" viewBox="0 0 800 800"><circle r="5.5" cx="372" cy="210" fill="hsl(77, 50%, 50%)" opacity="0.72"></circle><circle r="9" cx="672" cy="246" fill="hsl(91, 50%, 50%)" opacity="0.51"></circle><circle r="9" cx="321" cy="775" stroke-width="2" stroke="hsl(106, 50%, 50%)" fill="none" opacity="0.13"></circle><circle r="10" cx="29" cy="496" fill="hsl(95, 50%, 50%)" opacity="0.15"></circle><circle r="18" cx="479" cy="33" fill="hsl(317, 50%, 50%)" opacity="0.61"></circle><circle r="8" cx="72" cy="574" fill="hsl(103, 50%, 50%)" opacity="0.44"></circle><circle r="8.5" cx="319" cy="519" fill="hsl(106, 50%, 50%)" opacity="0.45"></circle><circle r="6.5" cx="451" cy="556" stroke-width="2" stroke="hsl(82, 50%, 50%)" fill="none" opacity="0.20"></circle><circle r="5.5" cx="361" cy="176" fill="hsl(88, 50%, 50%)" opacity="0.83"></circle><circle r="9" cx="87" cy="288" fill="hsl(107, 50%, 50%)" opacity="0.43"></circle><circle r="10" cx="328" cy="76" stroke-width="2" stroke="hsl(175, 50%, 50%)" fill="none" opacity="0.43"></circle><circle r="6" cx="388" cy="244" fill="hsl(72, 50%, 50%)" opacity="0.72"></circle><circle r="11.5" cx="118" cy="37" fill="hsl(80, 50%, 50%)" opacity="0.18"></circle><circle r="6" cx="606" cy="489" stroke-width="2" stroke="hsl(85, 50%, 50%)" fill="none" opacity="0.58"></circle><circle r="9.5" cx="757" cy="175" stroke-width="2" stroke="hsl(155, 50%, 50%)" fill="none" opacity="0.96"></circle><circle r="8.5" cx="27" cy="731" fill="hsl(95, 50%, 50%)" opacity="0.19"></circle><circle r="7" cx="308" cy="274" stroke-width="2" stroke="hsl(115, 50%, 50%)" fill="none" opacity="0.29"></circle><circle r="12" cx="438" cy="42" stroke-width="2" stroke="hsl(287, 50%, 50%)" fill="none" opacity="0.67"></circle><circle r="7" cx="96" cy="609" stroke-width="2" stroke="hsl(113, 50%, 50%)" fill="none" opacity="0.81"></circle><circle r="6.5" cx="643" cy="572" stroke-width="2" stroke="hsl(84, 50%, 50%)" fill="none" opacity="0.65"></circle><circle r="9.5" cx="276" cy="498" fill="hsl(134, 50%, 50%)" opacity="0.53"></circle><circle r="6.5" cx="644" cy="712" fill="hsl(84, 50%, 50%)" opacity="0.90"></circle><circle r="9.5" cx="190" cy="733" fill="hsl(159, 50%, 50%)" opacity="0.29"></circle><circle r="7" cx="27" cy="779" fill="hsl(95, 50%, 50%)" opacity="0.21"></circle><circle r="8.5" cx="686" cy="697" stroke-width="2" stroke="hsl(97, 50%, 50%)" fill="none" opacity="0.86"></circle><circle r="6.5" cx="582" cy="555" stroke-width="2" stroke="hsl(88, 50%, 50%)" fill="none" opacity="0.50"></circle><circle r="7" cx="574" cy="347" fill="hsl(90, 50%, 50%)" opacity="0.88"></circle><circle r="7" cx="617" cy="670" fill="hsl(84, 50%, 50%)" opacity="0.87"></circle><circle r="8.5" cx="745" cy="693" stroke-width="2" stroke="hsl(155, 50%, 50%)" fill="none" opacity="0.57"></circle><circle r="13.5" cx="263" cy="31" stroke-width="2" stroke="hsl(151, 50%, 50%)" fill="none" opacity="0.22"></circle><circle r="8" cx="553" cy="251" fill="hsl(92, 50%, 50%)" opacity="0.80"></circle><circle r="6.5" cx="356" cy="284" stroke-width="2" stroke="hsl(82, 50%, 50%)" fill="none" opacity="0.94"></circle><circle r="6.5" cx="388" cy="152" fill="hsl(109, 50%, 50%)" opacity="0.68"></circle><circle r="7" cx="781" cy="785" fill="hsl(201, 50%, 50%)" opacity="0.57"></circle><circle r="9.5" cx="501" cy="766" fill="hsl(92, 50%, 50%)" opacity="0.62"></circle><circle r="7" cx="376" cy="118" fill="hsl(155, 50%, 50%)" opacity="0.26"></circle><circle r="9.5" cx="321" cy="373" fill="hsl(106, 50%, 50%)" opacity="0.95"></circle><circle r="11.5" cx="139" cy="496" stroke-width="2" stroke="hsl(140, 50%, 50%)" fill="none" opacity="0.47"></circle><circle r="8" cx="463" cy="453" stroke-width="2" stroke="hsl(85, 50%, 50%)" fill="none" opacity="0.11"></circle><circle r="9" cx="287" cy="611" stroke-width="2" stroke="hsl(134, 50%, 50%)" fill="none" opacity="0.93"></circle><circle r="9" cx="298" cy="426" fill="hsl(125, 50%, 50%)" opacity="0.40"></circle><circle r="7" cx="331" cy="240" fill="hsl(97, 50%, 50%)" opacity="0.87"></circle><circle r="15" cx="139" cy="413" fill="hsl(140, 50%, 50%)" opacity="0.21"></circle><circle r="9" cx="305" cy="567" stroke-width="2" stroke="hsl(115, 50%, 50%)" fill="none" opacity="0.77"></circle><circle r="7" cx="512" cy="439" fill="hsl(92, 50%, 50%)" opacity="0.26"></circle><circle r="8" cx="520" cy="679" fill="hsl(93, 50%, 50%)" opacity="0.83"></circle><circle r="6.5" cx="17" cy="240" fill="hsl(96, 50%, 50%)" opacity="0.69"></circle><circle r="7.5" cx="566" cy="394" fill="hsl(90, 50%, 50%)" opacity="0.60"></circle><circle r="7.5" cx="785" cy="318" fill="hsl(201, 50%, 50%)" opacity="0.20"></circle><circle r="6.5" cx="380" cy="507" fill="hsl(74, 50%, 50%)" opacity="0.97"></circle><circle r="8" cx="43" cy="95" fill="hsl(77, 50%, 50%)" opacity="0.46"></circle><circle r="6.5" cx="349" cy="481" stroke-width="2" stroke="hsl(89, 50%, 50%)" fill="none" opacity="0.91"></circle><circle r="9" cx="243" cy="625" stroke-width="2" stroke="hsl(155, 50%, 50%)" fill="none" opacity="0.23"></circle><circle r="9" cx="641" cy="105" stroke-width="2" stroke="hsl(82, 50%, 50%)" fill="none" opacity="0.48"></circle><circle r="9.5" cx="642" cy="194" fill="hsl(84, 50%, 50%)" opacity="0.78"></circle><circle r="8" cx="604" cy="429" fill="hsl(85, 50%, 50%)" opacity="0.41"></circle><circle r="8.5" cx="644" cy="18" stroke-width="2" stroke="hsl(190, 50%, 50%)" fill="none" opacity="0.53"></circle><circle r="11" cx="205" cy="149" stroke-width="2" stroke="hsl(121, 50%, 50%)" fill="none" opacity="0.28"></circle><circle r="6.5" cx="157" cy="716" fill="hsl(146, 50%, 50%)" opacity="0.63"></circle><circle r="6.5" cx="315" cy="465" stroke-width="2" stroke="hsl(106, 50%, 50%)" fill="none" opacity="0.43"></circle><circle r="10.5" cx="113" cy="217" fill="hsl(126, 50%, 50%)" opacity="0.94"></circle><circle r="9.5" cx="698" cy="500" stroke-width="2" stroke="hsl(105, 50%, 50%)" fill="none" opacity="0.15"></circle><circle r="10.5" cx="712" cy="282" stroke-width="2" stroke="hsl(115, 50%, 50%)" fill="none" opacity="0.79"></circle><circle r="7" cx="629" cy="627" fill="hsl(83, 50%, 50%)" opacity="0.74"></circle><circle r="10.5" cx="718" cy="219" fill="hsl(127, 50%, 50%)" opacity="0.98"></circle><circle r="7" cx="617" cy="530" stroke-width="2" stroke="hsl(84, 50%, 50%)" fill="none" opacity="0.34"></circle><circle r="8" cx="72" cy="696" fill="hsl(103, 50%, 50%)" opacity="0.37"></circle><circle r="9" cx="422" cy="634" stroke-width="2" stroke="hsl(73, 50%, 50%)" fill="none" opacity="0.84"></circle><circle r="6.5" cx="634" cy="295" fill="hsl(83, 50%, 50%)" opacity="0.92"></circle><circle r="10" cx="311" cy="657" stroke-width="2" stroke="hsl(115, 50%, 50%)" fill="none" opacity="0.34"></circle><circle r="10" cx="260" cy="384" fill="hsl(149, 50%, 50%)" opacity="0.84"></circle><circle r="8.5" cx="564" cy="627" stroke-width="2" stroke="hsl(90, 50%, 50%)" fill="none" opacity="0.77"></circle><circle r="10" cx="361" cy="608" fill="hsl(82, 50%, 50%)" opacity="0.66"></circle><circle r="12.5" cx="208" cy="424" fill="hsl(161, 50%, 50%)" opacity="0.38"></circle><circle r="12" cx="602" cy="32" stroke-width="2" stroke="hsl(225, 50%, 50%)" fill="none" opacity="0.53"></circle><circle r="8" cx="243" cy="706" fill="hsl(155, 50%, 50%)" opacity="0.43"></circle><circle r="7" cx="430" cy="259" stroke-width="2" stroke="hsl(76, 50%, 50%)" fill="none" opacity="0.32"></circle><circle r="10" cx="233" cy="509" fill="hsl(158, 50%, 50%)" opacity="0.90"></circle><circle r="7" cx="386" cy="454" fill="hsl(74, 50%, 50%)" opacity="0.21"></circle><circle r="10" cx="165" cy="99" stroke-width="2" stroke="hsl(79, 50%, 50%)" fill="none" opacity="0.54"></circle><circle r="8" cx="487" cy="641" stroke-width="2" stroke="hsl(88, 50%, 50%)" fill="none" opacity="0.53"></circle><circle r="6" cx="543" cy="571" stroke-width="2" stroke="hsl(93, 50%, 50%)" fill="none" opacity="0.64"></circle><circle r="9.5" cx="205" cy="590" stroke-width="2" stroke="hsl(161, 50%, 50%)" fill="none" opacity="0.55"></circle><circle r="6.5" cx="711" cy="16" stroke-width="2" stroke="hsl(131, 50%, 50%)" fill="none" opacity="0.36"></circle><circle r="7.5" cx="407" cy="574" stroke-width="2" stroke="hsl(72, 50%, 50%)" fill="none" opacity="0.49"></circle><circle r="10.5" cx="779" cy="361" fill="hsl(201, 50%, 50%)" opacity="0.69"></circle><circle r="8" cx="524" cy="365" stroke-width="2" stroke="hsl(93, 50%, 50%)" fill="none" opacity="0.49"></circle><circle r="8" cx="106" cy="112" fill="hsl(56, 50%, 50%)" opacity="0.27"></circle><circle r="9.5" cx="310" cy="197" stroke-width="2" stroke="hsl(115, 50%, 50%)" fill="none" opacity="0.98"></circle><circle r="10" cx="689" cy="147" fill="hsl(67, 50%, 50%)" opacity="0.82"></circle><circle r="6.5" cx="174" cy="659" stroke-width="2" stroke="hsl(152, 50%, 50%)" fill="none" opacity="0.62"></circle><circle r="12" cx="29" cy="411" fill="hsl(95, 50%, 50%)" opacity="0.90"></circle><circle r="7" cx="425" cy="184" fill="hsl(88, 50%, 50%)" opacity="0.95"></circle><circle r="5" cx="448" cy="335" stroke-width="2" stroke="hsl(79, 50%, 50%)" fill="none" opacity="0.76"></circle><circle r="14.5" cx="508" cy="73" stroke-width="2" stroke="hsl(277, 50%, 50%)" fill="none" opacity="0.45"></circle><circle r="11" cx="246" cy="562" fill="hsl(155, 50%, 50%)" opacity="1.00"></circle><circle r="8.5" cx="279" cy="138" stroke-width="2" stroke="hsl(132, 50%, 50%)" fill="none" opacity="0.90"></circle><circle r="8.5" cx="64" cy="646" fill="hsl(103, 50%, 50%)" opacity="0.78"></circle><circle r="7.5" cx="173" cy="774" fill="hsl(152, 50%, 50%)" opacity="0.90"></circle><circle r="12" cx="580" cy="73" stroke-width="2" stroke="hsl(206, 50%, 50%)" fill="none" opacity="0.41"></circle><circle r="11.5" cx="332" cy="24" fill="hsl(197, 50%, 50%)" opacity="0.82"></circle><circle r="6" cx="395" cy="354" fill="hsl(72, 50%, 50%)" opacity="0.47"></circle><circle r="9.5" cx="372" cy="84" fill="hsl(195, 50%, 50%)" opacity="0.81"></circle><circle r="10" cx="780" cy="475" fill="hsl(201, 50%, 50%)" opacity="0.77"></circle><circle r="9.5" cx="736" cy="458" stroke-width="2" stroke="hsl(140, 50%, 50%)" fill="none" opacity="0.54"></circle><circle r="11.5" cx="777" cy="625" stroke-width="2" stroke="hsl(201, 50%, 50%)" fill="none" opacity="0.25"></circle><circle r="6.5" cx="530" cy="530" fill="hsl(93, 50%, 50%)" opacity="0.59"></circle><circle r="7" cx="418" cy="526" fill="hsl(73, 50%, 50%)" opacity="0.91"></circle><circle r="10.5" cx="376" cy="680" fill="hsl(74, 50%, 50%)" opacity="0.72"></circle><circle r="5.5" cx="395" cy="296" fill="hsl(72, 50%, 50%)" opacity="0.66"></circle><circle r="14.5" cx="488" cy="134" stroke-width="2" stroke="hsl(177, 50%, 50%)" fill="none" opacity="0.49"></circle><circle r="8.5" cx="25" cy="555" stroke-width="2" stroke="hsl(95, 50%, 50%)" fill="none" opacity="0.82"></circle><circle r="10" cx="87" cy="524" fill="hsl(107, 50%, 50%)" opacity="0.14"></circle><circle r="7.5" cx="162" cy="571" stroke-width="2" stroke="hsl(146, 50%, 50%)" fill="none" opacity="0.20"></circle><circle r="11.5" cx="777" cy="714" stroke-width="2" stroke="hsl(201, 50%, 50%)" fill="none" opacity="0.32"></circle><circle r="7.5" cx="641" cy="465" stroke-width="2" stroke="hsl(84, 50%, 50%)" fill="none" opacity="0.57"></circle><circle r="7" cx="57" cy="251" stroke-width="2" stroke="hsl(99, 50%, 50%)" fill="none" opacity="0.72"></circle><circle r="8.5" cx="483" cy="401" stroke-width="2" stroke="hsl(88, 50%, 50%)" fill="none" opacity="0.79"></circle><circle r="11.5" cx="770" cy="271" stroke-width="2" stroke="hsl(185, 50%, 50%)" fill="none" opacity="0.36"></circle><circle r="8" cx="507" cy="242" stroke-width="2" stroke="hsl(92, 50%, 50%)" fill="none" opacity="0.88"></circle><circle r="8" cx="600" cy="729" fill="hsl(85, 50%, 50%)" opacity="0.82"></circle><circle r="14" cx="188" cy="358" stroke-width="2" stroke="hsl(159, 50%, 50%)" fill="none" opacity="0.37"></circle><circle r="7" cx="464" cy="509" stroke-width="2" stroke="hsl(85, 50%, 50%)" fill="none" opacity="0.96"></circle><circle r="7" cx="464" cy="597" stroke-width="2" stroke="hsl(85, 50%, 50%)" fill="none" opacity="0.36"></circle><circle r="9" cx="264" cy="775" stroke-width="2" stroke="hsl(142, 50%, 50%)" fill="none" opacity="0.99"></circle><circle r="8.5" cx="540" cy="728" fill="hsl(93, 50%, 50%)" opacity="0.40"></circle><circle r="7.5" cx="566" cy="777" fill="hsl(90, 50%, 50%)" opacity="0.43"></circle><circle r="11.5" cx="192" cy="33" fill="hsl(99, 50%, 50%)" opacity="0.45"></circle><circle r="10.5" cx="436" cy="134" stroke-width="2" stroke="hsl(160, 50%, 50%)" fill="none" opacity="0.89"></circle><circle r="12" cx="385" cy="43" fill="hsl(233, 50%, 50%)" opacity="0.11"></circle><circle r="7" cx="665" cy="768" fill="hsl(91, 50%, 50%)" opacity="0.58"></circle><circle r="6.5" cx="373" cy="390" fill="hsl(77, 50%, 50%)" opacity="0.23"></circle><circle r="6" cx="161" cy="686" stroke-width="2" stroke="hsl(146, 50%, 50%)" fill="none" opacity="0.36"></circle><circle r="15.5" cx="538" cy="23" stroke-width="2" stroke="hsl(314, 50%, 50%)" fill="none" opacity="0.61"></circle><circle r="9" cx="602" cy="148" stroke-width="2" stroke="hsl(91, 50%, 50%)" fill="none" opacity="0.23"></circle><circle r="8.5" cx="271" cy="340" fill="hsl(142, 50%, 50%)" opacity="0.61"></circle><circle r="10" cx="525" cy="185" fill="hsl(103, 50%, 50%)" opacity="0.23"></circle><circle r="6" cx="87" cy="784" fill="hsl(107, 50%, 50%)" opacity="0.75"></circle><circle r="9" cx="705" cy="337" fill="hsl(115, 50%, 50%)" opacity="0.91"></circle><circle r="13" cx="773" cy="410" stroke-width="2" stroke="hsl(185, 50%, 50%)" fill="none" opacity="0.83"></circle><circle r="6.5" cx="287" cy="301" fill="hsl(134, 50%, 50%)" opacity="0.72"></circle><circle r="7" cx="131" cy="753" stroke-width="2" stroke="hsl(133, 50%, 50%)" fill="none" opacity="0.18"></circle><circle r="8" cx="194" cy="631" stroke-width="2" stroke="hsl(159, 50%, 50%)" fill="none" opacity="0.84"></circle><circle r="6" cx="571" cy="470" fill="hsl(90, 50%, 50%)" opacity="0.21"></circle><circle r="7.5" cx="75" cy="159" fill="hsl(76, 50%, 50%)" opacity="0.55"></circle><circle r="6.5" cx="615" cy="336" stroke-width="2" stroke="hsl(84, 50%, 50%)" fill="none" opacity="0.80"></circle><circle r="7" cx="600" cy="593" stroke-width="2" stroke="hsl(86, 50%, 50%)" fill="none" opacity="0.74"></circle><circle r="11" cx="190" cy="476" fill="hsl(159, 50%, 50%)" opacity="0.68"></circle><circle r="5.5" cx="138" cy="786" fill="hsl(140, 50%, 50%)" opacity="0.82"></circle><circle r="7.5" cx="768" cy="755" stroke-width="2" stroke="hsl(185, 50%, 50%)" fill="none" opacity="0.35"></circle><circle r="8.5" cx="22" cy="676" fill="hsl(96, 50%, 50%)" opacity="0.53"></circle><circle r="13.5" cx="40" cy="35" stroke-width="2" stroke="hsl(126, 50%, 50%)" fill="none" opacity="0.36"></circle><circle r="9" cx="737" cy="378" fill="hsl(140, 50%, 50%)" opacity="0.38"></circle><circle r="6" cx="535" cy="487" stroke-width="2" stroke="hsl(93, 50%, 50%)" fill="none" opacity="0.72"></circle><circle r="8.5" cx="425" cy="408" stroke-width="2" stroke="hsl(73, 50%, 50%)" fill="none" opacity="0.35"></circle><circle r="12.5" cx="434" cy="87" stroke-width="2" stroke="hsl(238, 50%, 50%)" fill="none" opacity="0.71"></circle><circle r="7" cx="653" cy="411" stroke-width="2" stroke="hsl(87, 50%, 50%)" fill="none" opacity="0.19"></circle><circle r="8" cx="696" cy="390" stroke-width="2" stroke="hsl(105, 50%, 50%)" fill="none" opacity="0.10"></circle><circle r="10.5" cx="26" cy="315" fill="hsl(95, 50%, 50%)" opacity="0.51"></circle><circle r="10" cx="760" cy="124" fill="hsl(100, 50%, 50%)" opacity="0.94"></circle></svg>